<mxfile host="app.diagrams.net" modified="2024-02-01T03:27:19.929Z" agent="Mozilla/5.0 (Macintosh; Intel Mac OS X 10_15_7) AppleWebKit/605.1.15 (KHTML, like Gecko) Version/16.4 Safari/605.1.15" version="23.1.0" etag="ua2wDJvbJH7hkO6j2P11" type="github">
  <diagram name="第 1 页" id="xbfDmXMetYBHDfTxvct8">
    <mxGraphModel>
      <root>
        <mxCell id="0" />
        <mxCell id="1" parent="0" />
      </root>
    </mxGraphModel>
  </diagram>
</mxfile>
